<?xml version="1.0" encoding="UTF-8" standalone="no"?>
<!DOCTYPE svg PUBLIC "-//W3C//DTD SVG 1.1//EN"
 "http://www.w3.org/Graphics/SVG/1.1/DTD/svg11.dtd">
<!-- Generated by graphviz version 9.0.0 (0)
 -->
<!-- Title: Hypothesis_Test_Chooser Pages: 1 -->
<svg width="1952pt" height="958pt"
 viewBox="0.00 0.00 1952.34 958.44" xmlns="http://www.w3.org/2000/svg" xmlns:xlink="http://www.w3.org/1999/xlink">
<g id="graph0" class="graph" transform="scale(1 1) rotate(0) translate(18 940.44)">
<title>Hypothesis_Test_Chooser</title>
<polygon fill="white" stroke="none" points="-18,18 -18,-940.44 1934.34,-940.44 1934.34,18 -18,18"/>
<g id="clust2" class="cluster">
<title>cluster_mean</title>
<polygon fill="white" stroke="black" points="8,-8 8,-428.51 846,-428.51 846,-8 8,-8"/>
<text text-anchor="middle" x="427" y="-413.11" font-family="Helvetica,sans-Serif" font-size="12.00">Means (quantitative outcomes)</text>
</g>
<g id="clust3" class="cluster">
<title>cluster_prop</title>
<polygon fill="white" stroke="black" points="854,-157.8 854,-428.51 1370,-428.51 1370,-157.8 854,-157.8"/>
<text text-anchor="middle" x="1112" y="-413.11" font-family="Helvetica,sans-Serif" font-size="12.00">Proportions (binary outcomes)</text>
</g>
<!-- START -->
<g id="node1" class="node">
<title>START</title>
<path fill="none" stroke="black" d="M1355.09,-922.44C1355.09,-922.44 1314.91,-922.44 1314.91,-922.44 1308.91,-922.44 1302.91,-916.44 1302.91,-910.44 1302.91,-910.44 1302.91,-895.77 1302.91,-895.77 1302.91,-889.77 1308.91,-883.77 1314.91,-883.77 1314.91,-883.77 1355.09,-883.77 1355.09,-883.77 1361.09,-883.77 1367.09,-889.77 1367.09,-895.77 1367.09,-895.77 1367.09,-910.44 1367.09,-910.44 1367.09,-916.44 1361.09,-922.44 1355.09,-922.44"/>
<text text-anchor="middle" x="1335" y="-898.08" font-family="Helvetica,sans-Serif" font-size="12.00">START</text>
</g>
<!-- OUTCOME -->
<g id="node2" class="node">
<title>OUTCOME</title>
<path fill="none" stroke="black" d="M1376.09,-814.77C1376.09,-814.77 1293.91,-814.77 1293.91,-814.77 1287.91,-814.77 1281.91,-808.77 1281.91,-802.77 1281.91,-802.77 1281.91,-737.1 1281.91,-737.1 1281.91,-731.1 1287.91,-725.1 1293.91,-725.1 1293.91,-725.1 1376.09,-725.1 1376.09,-725.1 1382.09,-725.1 1388.09,-731.1 1388.09,-737.1 1388.09,-737.1 1388.09,-802.77 1388.09,-802.77 1388.09,-808.77 1382.09,-814.77 1376.09,-814.77"/>
<text text-anchor="middle" x="1335" y="-790.41" font-family="Helvetica,sans-Serif" font-size="12.00">Outcome type?</text>
<text text-anchor="middle" x="1335" y="-777.66" font-family="Helvetica,sans-Serif" font-size="12.00">• Means</text>
<text text-anchor="middle" x="1335" y="-764.91" font-family="Helvetica,sans-Serif" font-size="12.00">• Proportions</text>
<text text-anchor="middle" x="1335" y="-752.16" font-family="Helvetica,sans-Serif" font-size="12.00">• Categorical</text>
<text text-anchor="middle" x="1335" y="-739.41" font-family="Helvetica,sans-Serif" font-size="12.00">• Quant–Quant</text>
</g>
<!-- START&#45;&gt;OUTCOME -->
<g id="edge1" class="edge">
<title>START&#45;&gt;OUTCOME</title>
<path fill="none" stroke="black" d="M1335,-883.46C1335,-883.46 1335,-824.56 1335,-824.56"/>
<polygon fill="black" stroke="black" points="1337.8,-824.56 1335,-816.56 1332.2,-824.56 1337.8,-824.56"/>
</g>
<!-- H_MEAN -->
<g id="node3" class="node">
<title>H_MEAN</title>
<path fill="none" stroke="black" stroke-width="2" d="M1059.96,-656.1C1059.96,-656.1 1022.04,-656.1 1022.04,-656.1 1016.04,-656.1 1010.04,-650.1 1010.04,-644.1 1010.04,-644.1 1010.04,-629.43 1010.04,-629.43 1010.04,-623.43 1016.04,-617.43 1022.04,-617.43 1022.04,-617.43 1059.96,-617.43 1059.96,-617.43 1065.96,-617.43 1071.96,-623.43 1071.96,-629.43 1071.96,-629.43 1071.96,-644.1 1071.96,-644.1 1071.96,-650.1 1065.96,-656.1 1059.96,-656.1"/>
<text text-anchor="middle" x="1041" y="-631.74" font-family="Helvetica,sans-Serif" font-size="12.00">Means</text>
</g>
<!-- OUTCOME&#45;&gt;H_MEAN -->
<g id="edge2" class="edge">
<title>OUTCOME&#45;&gt;H_MEAN</title>
<path fill="none" stroke="black" d="M1281.42,-769C1196.62,-769 1041,-769 1041,-769 1041,-769 1041,-666.08 1041,-666.08"/>
<polygon fill="black" stroke="black" points="1043.8,-666.08 1041,-658.08 1038.2,-666.08 1043.8,-666.08"/>
</g>
<!-- H_PROP -->
<g id="node4" class="node">
<title>H_PROP</title>
<path fill="none" stroke="black" stroke-width="2" d="M1255.71,-656.1C1255.71,-656.1 1192.29,-656.1 1192.29,-656.1 1186.29,-656.1 1180.29,-650.1 1180.29,-644.1 1180.29,-644.1 1180.29,-629.43 1180.29,-629.43 1180.29,-623.43 1186.29,-617.43 1192.29,-617.43 1192.29,-617.43 1255.71,-617.43 1255.71,-617.43 1261.71,-617.43 1267.71,-623.43 1267.71,-629.43 1267.71,-629.43 1267.71,-644.1 1267.71,-644.1 1267.71,-650.1 1261.71,-656.1 1255.71,-656.1"/>
<text text-anchor="middle" x="1224" y="-631.74" font-family="Helvetica,sans-Serif" font-size="12.00">Proportions</text>
</g>
<!-- OUTCOME&#45;&gt;H_PROP -->
<g id="edge3" class="edge">
<title>OUTCOME&#45;&gt;H_PROP</title>
<path fill="none" stroke="black" d="M1290.62,-724.89C1290.62,-683.98 1290.62,-630 1290.62,-630 1290.62,-630 1277.58,-630 1277.58,-630"/>
<polygon fill="black" stroke="black" points="1277.58,-627.2 1269.58,-630 1277.58,-632.8 1277.58,-627.2"/>
</g>
<!-- H_CAT -->
<g id="node5" class="node">
<title>H_CAT</title>
<path fill="none" stroke="black" stroke-width="2" d="M1507.09,-656.1C1507.09,-656.1 1460.91,-656.1 1460.91,-656.1 1454.91,-656.1 1448.91,-650.1 1448.91,-644.1 1448.91,-644.1 1448.91,-629.43 1448.91,-629.43 1448.91,-623.43 1454.91,-617.43 1460.91,-617.43 1460.91,-617.43 1507.09,-617.43 1507.09,-617.43 1513.09,-617.43 1519.09,-623.43 1519.09,-629.43 1519.09,-629.43 1519.09,-644.1 1519.09,-644.1 1519.09,-650.1 1513.09,-656.1 1507.09,-656.1"/>
<text text-anchor="middle" x="1484" y="-631.74" font-family="Helvetica,sans-Serif" font-size="12.00">Cat×Cat</text>
</g>
<!-- OUTCOME&#45;&gt;H_CAT -->
<g id="edge4" class="edge">
<title>OUTCOME&#45;&gt;H_CAT</title>
<path fill="none" stroke="black" d="M1369.31,-724.83C1369.31,-688.34 1369.31,-643 1369.31,-643 1369.31,-643 1439.14,-643 1439.14,-643"/>
<polygon fill="black" stroke="black" points="1439.14,-645.8 1447.14,-643 1439.14,-640.2 1439.14,-645.8"/>
</g>
<!-- H_QQ -->
<g id="node6" class="node">
<title>H_QQ</title>
<path fill="none" stroke="black" stroke-width="2" d="M1800.59,-656.1C1800.59,-656.1 1727.41,-656.1 1727.41,-656.1 1721.41,-656.1 1715.41,-650.1 1715.41,-644.1 1715.41,-644.1 1715.41,-629.43 1715.41,-629.43 1715.41,-623.43 1721.41,-617.43 1727.41,-617.43 1727.41,-617.43 1800.59,-617.43 1800.59,-617.43 1806.59,-617.43 1812.59,-623.43 1812.59,-629.43 1812.59,-629.43 1812.59,-644.1 1812.59,-644.1 1812.59,-650.1 1806.59,-656.1 1800.59,-656.1"/>
<text text-anchor="middle" x="1764" y="-631.74" font-family="Helvetica,sans-Serif" font-size="12.00">Quant–Quant</text>
</g>
<!-- OUTCOME&#45;&gt;H_QQ -->
<g id="edge5" class="edge">
<title>OUTCOME&#45;&gt;H_QQ</title>
<path fill="none" stroke="black" d="M1388.47,-769C1503.47,-769 1764,-769 1764,-769 1764,-769 1764,-666.08 1764,-666.08"/>
<polygon fill="black" stroke="black" points="1766.8,-666.08 1764,-658.08 1761.2,-666.08 1766.8,-666.08"/>
</g>
<!-- M_GATE -->
<g id="node7" class="node">
<title>M_GATE</title>
<path fill="none" stroke="black" d="M871.71,-548.43C871.71,-548.43 592.29,-548.43 592.29,-548.43 586.29,-548.43 580.29,-542.43 580.29,-536.43 580.29,-536.43 580.29,-483.51 580.29,-483.51 580.29,-477.51 586.29,-471.51 592.29,-471.51 592.29,-471.51 871.71,-471.51 871.71,-471.51 877.71,-471.51 883.71,-477.51 883.71,-483.51 883.71,-483.51 883.71,-536.43 883.71,-536.43 883.71,-542.43 877.71,-548.43 871.71,-548.43"/>
<text text-anchor="middle" x="732" y="-524.07" font-family="Helvetica,sans-Serif" font-size="12.00">Check conditions (means)</text>
<text text-anchor="middle" x="732" y="-511.32" font-family="Helvetica,sans-Serif" font-size="12.00">• Random/independent</text>
<text text-anchor="middle" x="732" y="-498.57" font-family="Helvetica,sans-Serif" font-size="12.00">• If n is small: roughly normal (or no extreme outliers)</text>
<text text-anchor="middle" x="732" y="-485.82" font-family="Helvetica,sans-Serif" font-size="12.00">• If n is large: CLT often ok</text>
</g>
<!-- H_MEAN&#45;&gt;M_GATE -->
<g id="edge6" class="edge">
<title>H_MEAN&#45;&gt;M_GATE</title>
<path fill="none" stroke="black" d="M1009.67,-636C931.11,-636 732,-636 732,-636 732,-636 732,-558.33 732,-558.33"/>
<polygon fill="black" stroke="black" points="734.8,-558.33 732,-550.33 729.2,-558.33 734.8,-558.33"/>
</g>
<!-- P_GATE -->
<g id="node16" class="node">
<title>P_GATE</title>
<path fill="none" stroke="black" d="M1287.34,-548.43C1287.34,-548.43 996.66,-548.43 996.66,-548.43 990.66,-548.43 984.66,-542.43 984.66,-536.43 984.66,-536.43 984.66,-483.51 984.66,-483.51 984.66,-477.51 990.66,-471.51 996.66,-471.51 996.66,-471.51 1287.34,-471.51 1287.34,-471.51 1293.34,-471.51 1299.34,-477.51 1299.34,-483.51 1299.34,-483.51 1299.34,-536.43 1299.34,-536.43 1299.34,-542.43 1293.34,-548.43 1287.34,-548.43"/>
<text text-anchor="middle" x="1142" y="-524.07" font-family="Helvetica,sans-Serif" font-size="12.00">Check conditions (proportions)</text>
<text text-anchor="middle" x="1142" y="-511.32" font-family="Helvetica,sans-Serif" font-size="12.00">• Random/independent</text>
<text text-anchor="middle" x="1142" y="-498.57" font-family="Helvetica,sans-Serif" font-size="12.00">• Success&#45;failure:</text>
<text text-anchor="middle" x="1142" y="-485.82" font-family="Helvetica,sans-Serif" font-size="12.00"> &#160;expected successes ≥ 10 AND expected failures ≥ 10</text>
</g>
<!-- H_PROP&#45;&gt;P_GATE -->
<g id="edge15" class="edge">
<title>H_PROP&#45;&gt;P_GATE</title>
<path fill="none" stroke="black" d="M1224,-616.95C1224,-616.95 1224,-558.3 1224,-558.3"/>
<polygon fill="black" stroke="black" points="1226.8,-558.3 1224,-550.3 1221.2,-558.3 1226.8,-558.3"/>
</g>
<!-- C_GATE -->
<g id="node21" class="node">
<title>C_GATE</title>
<path fill="none" stroke="black" d="M1637.46,-548.43C1637.46,-548.43 1362.54,-548.43 1362.54,-548.43 1356.54,-548.43 1350.54,-542.43 1350.54,-536.43 1350.54,-536.43 1350.54,-483.51 1350.54,-483.51 1350.54,-477.51 1356.54,-471.51 1362.54,-471.51 1362.54,-471.51 1637.46,-471.51 1637.46,-471.51 1643.46,-471.51 1649.46,-477.51 1649.46,-483.51 1649.46,-483.51 1649.46,-536.43 1649.46,-536.43 1649.46,-542.43 1643.46,-548.43 1637.46,-548.43"/>
<text text-anchor="middle" x="1500" y="-524.07" font-family="Helvetica,sans-Serif" font-size="12.00">Check conditions (chi&#45;square)</text>
<text text-anchor="middle" x="1500" y="-511.32" font-family="Helvetica,sans-Serif" font-size="12.00">• Random/independent</text>
<text text-anchor="middle" x="1500" y="-498.57" font-family="Helvetica,sans-Serif" font-size="12.00">• Expected counts typically ≥ 5</text>
<text text-anchor="middle" x="1500" y="-485.82" font-family="Helvetica,sans-Serif" font-size="12.00">• If 2×2 and expected counts are small: Fisher exact</text>
</g>
<!-- H_CAT&#45;&gt;C_GATE -->
<g id="edge20" class="edge">
<title>H_CAT&#45;&gt;C_GATE</title>
<path fill="none" stroke="black" d="M1484,-616.95C1484,-616.95 1484,-558.3 1484,-558.3"/>
<polygon fill="black" stroke="black" points="1486.8,-558.3 1484,-550.3 1481.2,-558.3 1486.8,-558.3"/>
</g>
<!-- QQ_GATE -->
<g id="node23" class="node">
<title>QQ_GATE</title>
<path fill="none" stroke="black" d="M1895.46,-548.43C1895.46,-548.43 1728.54,-548.43 1728.54,-548.43 1722.54,-548.43 1716.54,-542.43 1716.54,-536.43 1716.54,-536.43 1716.54,-483.51 1716.54,-483.51 1716.54,-477.51 1722.54,-471.51 1728.54,-471.51 1728.54,-471.51 1895.46,-471.51 1895.46,-471.51 1901.46,-471.51 1907.46,-477.51 1907.46,-483.51 1907.46,-483.51 1907.46,-536.43 1907.46,-536.43 1907.46,-542.43 1901.46,-548.43 1895.46,-548.43"/>
<text text-anchor="middle" x="1812" y="-524.07" font-family="Helvetica,sans-Serif" font-size="12.00">Check conditions (relationship)</text>
<text text-anchor="middle" x="1812" y="-511.32" font-family="Helvetica,sans-Serif" font-size="12.00">• Random/independent</text>
<text text-anchor="middle" x="1812" y="-498.57" font-family="Helvetica,sans-Serif" font-size="12.00">• Roughly linear trend</text>
<text text-anchor="middle" x="1812" y="-485.82" font-family="Helvetica,sans-Serif" font-size="12.00">• No extreme outliers</text>
</g>
<!-- H_QQ&#45;&gt;QQ_GATE -->
<g id="edge22" class="edge">
<title>H_QQ&#45;&gt;QQ_GATE</title>
<path fill="none" stroke="black" d="M1764.56,-616.95C1764.56,-616.95 1764.56,-558.3 1764.56,-558.3"/>
<polygon fill="black" stroke="black" points="1767.36,-558.3 1764.56,-550.3 1761.76,-558.3 1767.36,-558.3"/>
</g>
<!-- M_GROUPS -->
<g id="node8" class="node">
<title>M_GROUPS</title>
<path fill="none" stroke="black" d="M687.71,-389.76C687.71,-389.76 534.29,-389.76 534.29,-389.76 528.29,-389.76 522.29,-383.76 522.29,-377.76 522.29,-377.76 522.29,-324.84 522.29,-324.84 522.29,-318.84 528.29,-312.84 534.29,-312.84 534.29,-312.84 687.71,-312.84 687.71,-312.84 693.71,-312.84 699.71,-318.84 699.71,-324.84 699.71,-324.84 699.71,-377.76 699.71,-377.76 699.71,-383.76 693.71,-389.76 687.71,-389.76"/>
<text text-anchor="middle" x="611" y="-365.4" font-family="Helvetica,sans-Serif" font-size="12.00">How many groups/samples?</text>
<text text-anchor="middle" x="611" y="-352.65" font-family="Helvetica,sans-Serif" font-size="12.00">• 1</text>
<text text-anchor="middle" x="611" y="-339.9" font-family="Helvetica,sans-Serif" font-size="12.00">• 2</text>
<text text-anchor="middle" x="611" y="-327.15" font-family="Helvetica,sans-Serif" font-size="12.00">• 3+</text>
</g>
<!-- M_GATE&#45;&gt;M_GROUPS -->
<g id="edge14" class="edge">
<title>M_GATE&#45;&gt;M_GROUPS</title>
<path fill="none" stroke="black" d="M640,-471.15C640,-471.15 640,-399.5 640,-399.5"/>
<polygon fill="black" stroke="black" points="642.8,-399.5 640,-391.5 637.2,-399.5 642.8,-399.5"/>
</g>
<!-- M1_DEC -->
<g id="node9" class="node">
<title>M1_DEC</title>
<path fill="none" stroke="black" d="M394.83,-233.59C394.83,-233.59 269.17,-233.59 269.17,-233.59 263.17,-233.59 257.17,-227.59 257.17,-221.59 257.17,-221.59 257.17,-181.42 257.17,-181.42 257.17,-175.42 263.17,-169.42 269.17,-169.42 269.17,-169.42 394.83,-169.42 394.83,-169.42 400.83,-169.42 406.83,-175.42 406.83,-181.42 406.83,-181.42 406.83,-221.59 406.83,-221.59 406.83,-227.59 400.83,-233.59 394.83,-233.59"/>
<text text-anchor="middle" x="332" y="-209.23" font-family="Helvetica,sans-Serif" font-size="12.00">1 sample:</text>
<text text-anchor="middle" x="332" y="-196.48" font-family="Helvetica,sans-Serif" font-size="12.00">Is population σ known?</text>
<text text-anchor="middle" x="332" y="-183.73" font-family="Helvetica,sans-Serif" font-size="12.00">(rare in practice)</text>
</g>
<!-- M_GROUPS&#45;&gt;M1_DEC -->
<g id="edge7" class="edge">
<title>M_GROUPS&#45;&gt;M1_DEC</title>
<path fill="none" stroke="black" d="M521.96,-351C440.3,-351 332,-351 332,-351 332,-351 332,-243.46 332,-243.46"/>
<polygon fill="black" stroke="black" points="334.8,-243.46 332,-235.46 329.2,-243.46 334.8,-243.46"/>
<text text-anchor="middle" x="419.62" y="-269.34" font-family="Helvetica,sans-Serif" font-size="10.00">1</text>
</g>
<!-- M2 -->
<g id="node10" class="node">
<title>M2</title>
<path fill="none" stroke="black" d="M626.59,-227.22C626.59,-227.22 499.42,-227.22 499.42,-227.22 493.42,-227.22 487.42,-221.22 487.42,-215.22 487.42,-215.22 487.42,-187.8 487.42,-187.8 487.42,-181.8 493.42,-175.8 499.42,-175.8 499.42,-175.8 626.59,-175.8 626.59,-175.8 632.59,-175.8 638.59,-181.8 638.59,-187.8 638.59,-187.8 638.59,-215.22 638.59,-215.22 638.59,-221.22 632.59,-227.22 626.59,-227.22"/>
<text text-anchor="middle" x="563" y="-202.86" font-family="Helvetica,sans-Serif" font-size="12.00">2 samples:</text>
<text text-anchor="middle" x="563" y="-190.11" font-family="Helvetica,sans-Serif" font-size="12.00">Paired or independent?</text>
</g>
<!-- M_GROUPS&#45;&gt;M2 -->
<g id="edge8" class="edge">
<title>M_GROUPS&#45;&gt;M2</title>
<path fill="none" stroke="black" d="M580.44,-312.72C580.44,-312.72 580.44,-237.2 580.44,-237.2"/>
<polygon fill="black" stroke="black" points="583.24,-237.2 580.44,-229.2 577.64,-237.2 583.24,-237.2"/>
<text text-anchor="middle" x="596.62" y="-269.34" font-family="Helvetica,sans-Serif" font-size="10.00">2</text>
</g>
<!-- M3 -->
<g id="node11" class="node">
<title>M3</title>
<path fill="none" stroke="black" d="M793.71,-227.22C793.71,-227.22 700.29,-227.22 700.29,-227.22 694.29,-227.22 688.29,-221.22 688.29,-215.22 688.29,-215.22 688.29,-187.8 688.29,-187.8 688.29,-181.8 694.29,-175.8 700.29,-175.8 700.29,-175.8 793.71,-175.8 793.71,-175.8 799.71,-175.8 805.71,-181.8 805.71,-187.8 805.71,-187.8 805.71,-215.22 805.71,-215.22 805.71,-221.22 799.71,-227.22 793.71,-227.22"/>
<text text-anchor="middle" x="747" y="-202.86" font-family="Helvetica,sans-Serif" font-size="12.00">3+ groups:</text>
<text text-anchor="middle" x="747" y="-190.11" font-family="Helvetica,sans-Serif" font-size="12.00">One&#45;way ANOVA</text>
</g>
<!-- M_GROUPS&#45;&gt;M3 -->
<g id="edge9" class="edge">
<title>M_GROUPS&#45;&gt;M3</title>
<path fill="none" stroke="black" d="M694,-312.72C694,-312.72 694,-237.2 694,-237.2"/>
<polygon fill="black" stroke="black" points="696.8,-237.2 694,-229.2 691.2,-237.2 696.8,-237.2"/>
<text text-anchor="middle" x="721.62" y="-269.34" font-family="Helvetica,sans-Serif" font-size="10.00">3+</text>
</g>
<!-- M1Z -->
<g id="node12" class="node">
<title>M1Z</title>
<path fill="none" stroke="black" d="M185.71,-77.42C185.71,-77.42 38.29,-77.42 38.29,-77.42 32.29,-77.42 26.29,-71.42 26.29,-65.42 26.29,-65.42 26.29,-50.75 26.29,-50.75 26.29,-44.75 32.29,-38.75 38.29,-38.75 38.29,-38.75 185.71,-38.75 185.71,-38.75 191.71,-38.75 197.71,-44.75 197.71,-50.75 197.71,-50.75 197.71,-65.42 197.71,-65.42 197.71,-71.42 191.71,-77.42 185.71,-77.42"/>
<text text-anchor="middle" x="112" y="-53.06" font-family="Helvetica,sans-Serif" font-size="12.00">One&#45;sample z test for mean</text>
</g>
<!-- M1_DEC&#45;&gt;M1Z -->
<g id="edge10" class="edge">
<title>M1_DEC&#45;&gt;M1Z</title>
<path fill="none" stroke="black" d="M256.9,-201C193.17,-201 112,-201 112,-201 112,-201 112,-87.17 112,-87.17"/>
<polygon fill="black" stroke="black" points="114.8,-87.17 112,-79.17 109.2,-87.17 114.8,-87.17"/>
<text text-anchor="middle" x="194.25" y="-125.92" font-family="Helvetica,sans-Serif" font-size="10.00">Yes</text>
</g>
<!-- M1T -->
<g id="node13" class="node">
<title>M1T</title>
<path fill="none" stroke="black" d="M404.21,-77.42C404.21,-77.42 259.79,-77.42 259.79,-77.42 253.79,-77.42 247.79,-71.42 247.79,-65.42 247.79,-65.42 247.79,-50.75 247.79,-50.75 247.79,-44.75 253.79,-38.75 259.79,-38.75 259.79,-38.75 404.21,-38.75 404.21,-38.75 410.21,-38.75 416.21,-44.75 416.21,-50.75 416.21,-50.75 416.21,-65.42 416.21,-65.42 416.21,-71.42 410.21,-77.42 404.21,-77.42"/>
<text text-anchor="middle" x="332" y="-53.06" font-family="Helvetica,sans-Serif" font-size="12.00">One&#45;sample t test for mean</text>
</g>
<!-- M1_DEC&#45;&gt;M1T -->
<g id="edge11" class="edge">
<title>M1_DEC&#45;&gt;M1T</title>
<path fill="none" stroke="black" d="M332,-168.96C332,-168.96 332,-87.22 332,-87.22"/>
<polygon fill="black" stroke="black" points="334.8,-87.22 332,-79.22 329.2,-87.22 334.8,-87.22"/>
<text text-anchor="middle" x="362.38" y="-125.92" font-family="Helvetica,sans-Serif" font-size="10.00">No / unknown</text>
</g>
<!-- PAIRED -->
<g id="node14" class="node">
<title>PAIRED</title>
<path fill="none" stroke="black" d="M613.71,-90.17C613.71,-90.17 478.29,-90.17 478.29,-90.17 472.29,-90.17 466.29,-84.17 466.29,-78.17 466.29,-78.17 466.29,-38 466.29,-38 466.29,-32 472.29,-26 478.29,-26 478.29,-26 613.71,-26 613.71,-26 619.71,-26 625.71,-32 625.71,-38 625.71,-38 625.71,-78.17 625.71,-78.17 625.71,-84.17 619.71,-90.17 613.71,-90.17"/>
<text text-anchor="middle" x="546" y="-65.81" font-family="Helvetica,sans-Serif" font-size="12.00">Paired:</text>
<text text-anchor="middle" x="546" y="-53.06" font-family="Helvetica,sans-Serif" font-size="12.00">Paired t test</text>
<text text-anchor="middle" x="546" y="-40.31" font-family="Helvetica,sans-Serif" font-size="12.00">(test mean of differences)</text>
</g>
<!-- M2&#45;&gt;PAIRED -->
<g id="edge12" class="edge">
<title>M2&#45;&gt;PAIRED</title>
<path fill="none" stroke="black" d="M556.56,-175.53C556.56,-175.53 556.56,-100.17 556.56,-100.17"/>
<polygon fill="black" stroke="black" points="559.36,-100.17 556.56,-92.17 553.76,-100.17 559.36,-100.17"/>
<text text-anchor="middle" x="567.88" y="-125.92" font-family="Helvetica,sans-Serif" font-size="10.00">Paired</text>
</g>
<!-- INDEP -->
<g id="node15" class="node">
<title>INDEP</title>
<path fill="none" stroke="black" d="M815.96,-90.17C815.96,-90.17 688.04,-90.17 688.04,-90.17 682.04,-90.17 676.04,-84.17 676.04,-78.17 676.04,-78.17 676.04,-38 676.04,-38 676.04,-32 682.04,-26 688.04,-26 688.04,-26 815.96,-26 815.96,-26 821.96,-26 827.96,-32 827.96,-38 827.96,-38 827.96,-78.17 827.96,-78.17 827.96,-84.17 821.96,-90.17 815.96,-90.17"/>
<text text-anchor="middle" x="752" y="-65.81" font-family="Helvetica,sans-Serif" font-size="12.00">Independent:</text>
<text text-anchor="middle" x="752" y="-53.06" font-family="Helvetica,sans-Serif" font-size="12.00">Welch two&#45;sample t test</text>
<text text-anchor="middle" x="752" y="-40.31" font-family="Helvetica,sans-Serif" font-size="12.00">(default)</text>
</g>
<!-- M2&#45;&gt;INDEP -->
<g id="edge13" class="edge">
<title>M2&#45;&gt;INDEP</title>
<path fill="none" stroke="black" d="M638.81,-201C662.31,-201 682.16,-201 682.16,-201 682.16,-201 682.16,-100.03 682.16,-100.03"/>
<polygon fill="black" stroke="black" points="684.97,-100.03 682.17,-92.03 679.37,-100.03 684.97,-100.03"/>
<text text-anchor="middle" x="724.62" y="-125.92" font-family="Helvetica,sans-Serif" font-size="10.00">Independent</text>
</g>
<!-- P_GROUPS -->
<g id="node17" class="node">
<title>P_GROUPS</title>
<path fill="none" stroke="black" d="M1185.71,-389.76C1185.71,-389.76 1080.29,-389.76 1080.29,-389.76 1074.29,-389.76 1068.29,-383.76 1068.29,-377.76 1068.29,-377.76 1068.29,-324.84 1068.29,-324.84 1068.29,-318.84 1074.29,-312.84 1080.29,-312.84 1080.29,-312.84 1185.71,-312.84 1185.71,-312.84 1191.71,-312.84 1197.71,-318.84 1197.71,-324.84 1197.71,-324.84 1197.71,-377.76 1197.71,-377.76 1197.71,-383.76 1191.71,-389.76 1185.71,-389.76"/>
<text text-anchor="middle" x="1133" y="-365.4" font-family="Helvetica,sans-Serif" font-size="12.00">How many groups?</text>
<text text-anchor="middle" x="1133" y="-352.65" font-family="Helvetica,sans-Serif" font-size="12.00">• 1</text>
<text text-anchor="middle" x="1133" y="-339.9" font-family="Helvetica,sans-Serif" font-size="12.00">• 2</text>
<text text-anchor="middle" x="1133" y="-327.15" font-family="Helvetica,sans-Serif" font-size="12.00">• 3+</text>
</g>
<!-- P_GATE&#45;&gt;P_GROUPS -->
<g id="edge19" class="edge">
<title>P_GATE&#45;&gt;P_GROUPS</title>
<path fill="none" stroke="black" d="M1133,-471.15C1133,-471.15 1133,-399.5 1133,-399.5"/>
<polygon fill="black" stroke="black" points="1135.8,-399.5 1133,-391.5 1130.2,-399.5 1135.8,-399.5"/>
</g>
<!-- P1 -->
<g id="node18" class="node">
<title>P1</title>
<path fill="none" stroke="black" d="M996.46,-227.22C996.46,-227.22 883.54,-227.22 883.54,-227.22 877.54,-227.22 871.54,-221.22 871.54,-215.22 871.54,-215.22 871.54,-187.8 871.54,-187.8 871.54,-181.8 877.54,-175.8 883.54,-175.8 883.54,-175.8 996.46,-175.8 996.46,-175.8 1002.46,-175.8 1008.46,-181.8 1008.46,-187.8 1008.46,-187.8 1008.46,-215.22 1008.46,-215.22 1008.46,-221.22 1002.46,-227.22 996.46,-227.22"/>
<text text-anchor="middle" x="940" y="-202.86" font-family="Helvetica,sans-Serif" font-size="12.00">1 proportion:</text>
<text text-anchor="middle" x="940" y="-190.11" font-family="Helvetica,sans-Serif" font-size="12.00">One&#45;proportion z test</text>
</g>
<!-- P_GROUPS&#45;&gt;P1 -->
<g id="edge16" class="edge">
<title>P_GROUPS&#45;&gt;P1</title>
<path fill="none" stroke="black" d="M1067.98,-351C1032.84,-351 996.56,-351 996.56,-351 996.56,-351 996.56,-237.06 996.56,-237.06"/>
<polygon fill="black" stroke="black" points="999.36,-237.06 996.56,-229.06 993.76,-237.06 999.36,-237.06"/>
<text text-anchor="middle" x="1007.62" y="-269.34" font-family="Helvetica,sans-Serif" font-size="10.00">1</text>
</g>
<!-- P2 -->
<g id="node19" class="node">
<title>P2</title>
<path fill="none" stroke="black" d="M1183.09,-227.22C1183.09,-227.22 1070.91,-227.22 1070.91,-227.22 1064.91,-227.22 1058.91,-221.22 1058.91,-215.22 1058.91,-215.22 1058.91,-187.8 1058.91,-187.8 1058.91,-181.8 1064.91,-175.8 1070.91,-175.8 1070.91,-175.8 1183.09,-175.8 1183.09,-175.8 1189.09,-175.8 1195.09,-181.8 1195.09,-187.8 1195.09,-187.8 1195.09,-215.22 1195.09,-215.22 1195.09,-221.22 1189.09,-227.22 1183.09,-227.22"/>
<text text-anchor="middle" x="1127" y="-202.86" font-family="Helvetica,sans-Serif" font-size="12.00">2 proportions:</text>
<text text-anchor="middle" x="1127" y="-190.11" font-family="Helvetica,sans-Serif" font-size="12.00">Two&#45;proportion z test</text>
</g>
<!-- P_GROUPS&#45;&gt;P2 -->
<g id="edge17" class="edge">
<title>P_GROUPS&#45;&gt;P2</title>
<path fill="none" stroke="black" d="M1131.69,-312.72C1131.69,-312.72 1131.69,-237.2 1131.69,-237.2"/>
<polygon fill="black" stroke="black" points="1134.49,-237.2 1131.69,-229.2 1128.89,-237.2 1134.49,-237.2"/>
<text text-anchor="middle" x="1133.62" y="-269.34" font-family="Helvetica,sans-Serif" font-size="10.00">2</text>
</g>
<!-- P3 -->
<g id="node20" class="node">
<title>P3</title>
<path fill="none" stroke="black" d="M1340.46,-227.22C1340.46,-227.22 1257.54,-227.22 1257.54,-227.22 1251.54,-227.22 1245.54,-221.22 1245.54,-215.22 1245.54,-215.22 1245.54,-187.8 1245.54,-187.8 1245.54,-181.8 1251.54,-175.8 1257.54,-175.8 1257.54,-175.8 1340.46,-175.8 1340.46,-175.8 1346.46,-175.8 1352.46,-181.8 1352.46,-187.8 1352.46,-187.8 1352.46,-215.22 1352.46,-215.22 1352.46,-221.22 1346.46,-227.22 1340.46,-227.22"/>
<text text-anchor="middle" x="1299" y="-202.86" font-family="Helvetica,sans-Serif" font-size="12.00">3+ groups:</text>
<text text-anchor="middle" x="1299" y="-190.11" font-family="Helvetica,sans-Serif" font-size="12.00">Chi&#45;square test</text>
</g>
<!-- P_GROUPS&#45;&gt;P3 -->
<g id="edge18" class="edge">
<title>P_GROUPS&#45;&gt;P3</title>
<path fill="none" stroke="black" d="M1197.82,-351C1234.23,-351 1272.44,-351 1272.44,-351 1272.44,-351 1272.44,-237.06 1272.44,-237.06"/>
<polygon fill="black" stroke="black" points="1275.24,-237.06 1272.44,-229.06 1269.64,-237.06 1275.24,-237.06"/>
<text text-anchor="middle" x="1252.62" y="-269.34" font-family="Helvetica,sans-Serif" font-size="10.00">3+</text>
</g>
<!-- CHI -->
<g id="node22" class="node">
<title>CHI</title>
<path fill="none" stroke="black" d="M1647.59,-383.39C1647.59,-383.39 1400.41,-383.39 1400.41,-383.39 1394.41,-383.39 1388.41,-377.39 1388.41,-371.39 1388.41,-371.39 1388.41,-331.22 1388.41,-331.22 1388.41,-325.22 1394.41,-319.22 1400.41,-319.22 1400.41,-319.22 1647.59,-319.22 1647.59,-319.22 1653.59,-319.22 1659.59,-325.22 1659.59,-331.22 1659.59,-331.22 1659.59,-371.39 1659.59,-371.39 1659.59,-377.39 1653.59,-383.39 1647.59,-383.39"/>
<text text-anchor="middle" x="1524" y="-359.03" font-family="Helvetica,sans-Serif" font-size="12.00">Categorical × Categorical:</text>
<text text-anchor="middle" x="1524" y="-346.28" font-family="Helvetica,sans-Serif" font-size="12.00">Chi&#45;square test of independence</text>
<text text-anchor="middle" x="1524" y="-333.53" font-family="Helvetica,sans-Serif" font-size="12.00">(2×2 with small expected counts: Fisher exact)</text>
</g>
<!-- C_GATE&#45;&gt;CHI -->
<g id="edge21" class="edge">
<title>C_GATE&#45;&gt;CHI</title>
<path fill="none" stroke="black" d="M1518.94,-471.15C1518.94,-471.15 1518.94,-393.34 1518.94,-393.34"/>
<polygon fill="black" stroke="black" points="1521.74,-393.34 1518.94,-385.34 1516.14,-393.34 1521.74,-393.34"/>
</g>
<!-- QQ -->
<g id="node24" class="node">
<title>QQ</title>
<path fill="none" stroke="black" d="M1904.34,-389.76C1904.34,-389.76 1721.66,-389.76 1721.66,-389.76 1715.66,-389.76 1709.66,-383.76 1709.66,-377.76 1709.66,-377.76 1709.66,-324.84 1709.66,-324.84 1709.66,-318.84 1715.66,-312.84 1721.66,-312.84 1721.66,-312.84 1904.34,-312.84 1904.34,-312.84 1910.34,-312.84 1916.34,-318.84 1916.34,-324.84 1916.34,-324.84 1916.34,-377.76 1916.34,-377.76 1916.34,-383.76 1910.34,-389.76 1904.34,-389.76"/>
<text text-anchor="middle" x="1813" y="-365.4" font-family="Helvetica,sans-Serif" font-size="12.00">Quant–Quant relationship:</text>
<text text-anchor="middle" x="1813" y="-352.65" font-family="Helvetica,sans-Serif" font-size="12.00">Correlation test (t test on r)</text>
<text text-anchor="middle" x="1813" y="-339.9" font-family="Helvetica,sans-Serif" font-size="12.00">or</text>
<text text-anchor="middle" x="1813" y="-327.15" font-family="Helvetica,sans-Serif" font-size="12.00">Regression slope test (t test on β₁)</text>
</g>
<!-- QQ_GATE&#45;&gt;QQ -->
<g id="edge23" class="edge">
<title>QQ_GATE&#45;&gt;QQ</title>
<path fill="none" stroke="black" d="M1812,-471.15C1812,-471.15 1812,-399.5 1812,-399.5"/>
<polygon fill="black" stroke="black" points="1814.8,-399.5 1812,-391.5 1809.2,-399.5 1814.8,-399.5"/>
</g>
</g>
</svg>
